<?xml version="1.0" encoding="UTF-8" standalone="no"?>
<!DOCTYPE svg PUBLIC "-//W3C//DTD SVG 1.1//EN" "http://www.w3.org/Graphics/SVG/1.1/DTD/svg11.dtd">
<svg width="100%" height="100%" viewBox="0 0 1080 1080" version="1.1" xmlns="http://www.w3.org/2000/svg" xmlnsXlink="http://www.w3.org/1999/xlink" xmlSpace="preserve" xmlnsSerif="http://www.serif.com/" style="fill-rule:evenodd;clip-rule:evenodd;stroke-linecap:round;stroke-linejoin:round;stroke-miterlimit:1.5;">
    <g id="Logo">
        <g id="Capa1">
            <g transform="matrix(5.00318,0,0,5.00318,-3780.06,-2805.11)">
                <path d="M922.301,609.497C922.301,607.719 920.859,606.277 919.08,606.277L807.097,606.277C805.318,606.277 803.876,607.719 803.876,609.497L803.876,727.476C803.876,729.255 805.318,730.697 807.097,730.697L919.08,730.697C920.859,730.697 922.301,729.255 922.301,727.476L922.301,609.497Z" style="fill:rgb(35,112,38);stroke:rgb(35,112,38);stroke-width:5.69px;"/>
            </g>
            <g transform="matrix(5.00318,0,0,5.00318,-3774.85,-2853)">
                <path d="M772.611,636.834C771.04,636.834 769.764,635.558 769.764,633.987C769.764,632.416 771.04,631.14 772.611,631.14L802.835,631.14C804.406,631.14 805.682,632.416 805.682,633.987C805.682,635.558 804.406,636.834 802.835,636.834L772.611,636.834Z" style="fill:white;stroke:rgb(35,112,38);stroke-width:2.32px;stroke-linecap:butt;stroke-miterlimit:2;"/>
            </g>
            <g transform="matrix(5.00318,0,0,5.00318,-3026.62,-2853)">
                <path d="M772.611,636.834C771.04,636.834 769.764,635.558 769.764,633.987C769.764,632.416 771.04,631.14 772.611,631.14L802.835,631.14C804.406,631.14 805.682,632.416 805.682,633.987C805.682,635.558 804.406,636.834 802.835,636.834L772.611,636.834Z" style="fill:white;stroke:rgb(35,112,38);stroke-width:2.32px;stroke-linecap:butt;stroke-miterlimit:2;"/>
            </g>
            <g transform="matrix(3.06357e-16,-5.00318,5.00318,3.06357e-16,-2851.1,4871.47)">
                <path d="M772.611,636.834C771.04,636.834 769.764,635.558 769.764,633.987C769.764,632.416 771.04,631.14 772.611,631.14L802.835,631.14C804.406,631.14 805.682,632.416 805.682,633.987C805.682,635.558 804.406,636.834 802.835,636.834L772.611,636.834Z" style="fill:white;stroke:rgb(35,112,38);stroke-width:2.32px;stroke-linecap:butt;stroke-miterlimit:2;"/>
            </g>
            <g transform="matrix(3.06357e-16,-5.00318,5.00318,3.06357e-16,-2851.1,4090.01)">
                <path d="M772.611,636.834C771.04,636.834 769.764,635.558 769.764,633.987C769.764,632.416 771.04,631.14 772.611,631.14L802.835,631.14C804.406,631.14 805.682,632.416 805.682,633.987C805.682,635.558 804.406,636.834 802.835,636.834L772.611,636.834Z" style="fill:white;stroke:rgb(35,112,38);stroke-width:2.32px;stroke-linecap:butt;stroke-miterlimit:2;"/>
            </g>
            <g transform="matrix(5.00318,0,0,5.00318,-3775.62,-2635.82)">
                <path d="M772.611,636.834C771.04,636.834 769.764,635.558 769.764,633.987C769.764,632.416 771.04,631.14 772.611,631.14L802.835,631.14C804.406,631.14 805.682,632.416 805.682,633.987C805.682,635.558 804.406,636.834 802.835,636.834L772.611,636.834Z" style="fill:white;stroke:rgb(35,112,38);stroke-width:2.32px;stroke-linecap:butt;stroke-miterlimit:2;"/>
            </g>
            <g transform="matrix(5.00318,0,0,5.00318,-3027.39,-2635.82)">
                <path d="M772.611,636.834C771.04,636.834 769.764,635.558 769.764,633.987C769.764,632.416 771.04,631.14 772.611,631.14L802.835,631.14C804.406,631.14 805.682,632.416 805.682,633.987C805.682,635.558 804.406,636.834 802.835,636.834L772.611,636.834Z" style="fill:white;stroke:rgb(35,112,38);stroke-width:2.32px;stroke-linecap:butt;stroke-miterlimit:2;"/>
            </g>
            <g transform="matrix(3.06357e-16,-5.00318,5.00318,3.06357e-16,-2633.92,4872.24)">
                <path d="M772.611,636.834C771.04,636.834 769.764,635.558 769.764,633.987C769.764,632.416 771.04,631.14 772.611,631.14L802.835,631.14C804.406,631.14 805.682,632.416 805.682,633.987C805.682,635.558 804.406,636.834 802.835,636.834L772.611,636.834Z" style="fill:white;stroke:rgb(35,112,38);stroke-width:2.32px;stroke-linecap:butt;stroke-miterlimit:2;"/>
            </g>
            <g transform="matrix(3.06357e-16,-5.00318,5.00318,3.06357e-16,-2633.92,4090.78)">
                <path d="M772.611,633.987L802.835,633.987" style="fill:none;"/>
            </g>
            <g transform="matrix(3.06357e-16,-5.00318,5.00318,3.06357e-16,-2633.92,4090.78)">
                <path d="M772.611,636.834C771.04,636.834 769.764,635.558 769.764,633.987C769.764,632.416 771.04,631.14 772.611,631.14L802.835,631.14C804.406,631.14 805.682,632.416 805.682,633.987C805.682,635.558 804.406,636.834 802.835,636.834L772.611,636.834Z" style="fill:white;stroke:rgb(35,112,38);stroke-width:2.32px;stroke-linecap:butt;stroke-miterlimit:2;"/>
            </g>
            <g transform="matrix(5.00318,0,0,5.00318,-3775.62,-2418.63)">
                <path d="M772.611,636.834C771.04,636.834 769.764,635.558 769.764,633.987C769.764,632.416 771.04,631.14 772.611,631.14L802.835,631.14C804.406,631.14 805.682,632.416 805.682,633.987C805.682,635.558 804.406,636.834 802.835,636.834L772.611,636.834Z" style="fill:white;stroke:rgb(35,112,38);stroke-width:2.32px;stroke-linecap:butt;stroke-miterlimit:2;"/>
            </g>
            <g transform="matrix(5.00318,0,0,5.00318,-3027.39,-2418.63)">
                <path d="M772.611,636.834C771.04,636.834 769.764,635.558 769.764,633.987C769.764,632.416 771.04,631.14 772.611,631.14L802.835,631.14C804.406,631.14 805.682,632.416 805.682,633.987C805.682,635.558 804.406,636.834 802.835,636.834L772.611,636.834Z" style="fill:white;stroke:rgb(35,112,38);stroke-width:2.32px;stroke-linecap:butt;stroke-miterlimit:2;"/>
            </g>
            <g transform="matrix(3.06357e-16,-5.00318,5.00318,3.06357e-16,-2416.74,4872.24)">
                <path d="M772.611,636.834C771.04,636.834 769.764,635.558 769.764,633.987C769.764,632.416 771.04,631.14 772.611,631.14L802.835,631.14C804.406,631.14 805.682,632.416 805.682,633.987C805.682,635.558 804.406,636.834 802.835,636.834L772.611,636.834Z" style="fill:white;stroke:rgb(35,112,38);stroke-width:2.32px;stroke-linecap:butt;stroke-miterlimit:2;"/>
            </g>
            <g transform="matrix(3.06357e-16,-5.00318,5.00318,3.06357e-16,-2416.74,4090.78)">
                <path d="M772.611,636.834C771.04,636.834 769.764,635.558 769.764,633.987C769.764,632.416 771.04,631.14 772.611,631.14L802.835,631.14C804.406,631.14 805.682,632.416 805.682,633.987C805.682,635.558 804.406,636.834 802.835,636.834L772.611,636.834Z" style="fill:white;stroke:rgb(35,112,38);stroke-width:2.32px;stroke-linecap:butt;stroke-miterlimit:2;"/>
            </g>
        </g>
        <g transform="matrix(1.2573,0,0,1.2573,-171.102,-120.231)">
            <g id="Capa2">
                <path d="M408.999,485.928C408.999,474.685 413.584,463.928 421.694,456.141C446.538,432.291 502.119,378.932 536.177,346.236C552.083,330.966 577.18,330.887 593.181,346.057C627.641,378.726 684.055,432.209 709.272,456.116C717.496,463.913 722.155,474.748 722.155,486.081L722.155,668.063C722.155,690.868 703.668,709.355 680.863,709.355L450.29,709.355C427.486,709.355 408.999,690.868 408.999,668.063L408.999,485.928Z" style="fill:rgb(35,112,38);stroke:white;stroke-width:22.66px;"/>
            </g>
        </g>
        <g transform="matrix(0.472391,0,0,0.472391,177.587,498.406)">
            <path d="M521.137,461.613C515.142,460.966 510.295,456.438 509.242,450.501C509.232,450.503 509.232,450.503 509.232,450.503C507.746,442.122 511.269,433.641 518.256,428.781C525.244,423.921 534.42,423.568 541.76,427.878C544.14,429.33 546.705,430.106 549.465,430.106C584.859,430.106 616.268,420.582 643.691,401.534C671.115,382.487 695.634,353.374 717.249,314.198C724.273,301.229 731.163,286.437 737.917,269.821C744.672,253.204 753.048,229.901 763.044,199.911C771.42,175.054 779.593,148.239 787.563,119.464C795.534,90.69 802.288,64.414 807.827,40.638C813.366,16.862 823.777,-34.797 828.91,-63.976C828.91,-63.976 736.026,-71.217 679.558,-71.217C650.649,-71.217 626.332,-69.326 606.609,-65.543C586.886,-61.761 570.134,-55.682 556.355,-47.306C537.442,-35.418 527.986,-20.153 527.986,-1.51C527.986,31.9 564.561,52.634 637.71,60.692C643.725,61.396 648.823,65.443 650.872,71.141C652.922,76.84 651.569,83.207 647.381,87.58C646.57,88.468 645.828,89.243 645.203,89.895C643.852,91.306 641.943,92.043 639.994,91.903C615.351,90.105 593.82,85.446 575.403,77.924C556.22,70.088 541.427,59.686 531.025,46.718C520.623,33.749 515.422,19.024 515.422,2.543C515.422,-30.69 536.361,-57.438 578.24,-77.701C613.634,-94.723 665.644,-103.234 734.27,-103.234C752.913,-103.234 776.756,-102.153 805.801,-99.991C834.845,-97.83 864.903,-95.061 895.974,-91.683C916.637,-89.437 968.947,-80.911 1001.67,-75.451C1008.24,-74.388 1013.91,-70.262 1016.95,-64.34C1019.98,-58.418 1020.01,-51.406 1017.04,-45.455C1016.86,-45.087 1016.68,-44.725 1016.5,-44.368C1013.51,-38.388 1006.92,-35.102 1000.35,-36.307C984.332,-39.237 954.227,-44.623 932.063,-47.843L929.226,-48.248L926.794,-36.901C905.45,60.635 883.43,140.947 860.735,204.034C838.04,267.122 812.507,317.579 784.138,355.404C755.769,393.23 722.739,420.653 685.049,437.675C647.358,454.696 602.846,463.207 551.511,463.207C541.387,463.207 531.262,462.676 521.137,461.613Z" style="fill:white;fill-rule:nonzero;stroke:white;stroke-width:2.12px;stroke-linecap:butt;stroke-miterlimit:2;"/>
        </g>
    </g>
</svg>
